{
    "asset" : {
        "generator" : "Khronos glTF Blender I/O v1.7.33",
        "version" : "2.0"
    },
    "scene" : 0,
    "scenes" : [
        {
            "name" : "Scene",
            "nodes" : [
                0
            ]
        }
    ],
    "nodes" : [
        {
            "mesh" : 0,
            "name" : "Cube",
            "translation" : [
                0.006562981754541397,
                2.3557469844818115,
                0
            ]
        }
    ],
    "materials" : [
        {
            "doubleSided" : true,
            "name" : "Material",
            "pbrMetallicRoughness" : {
                "baseColorTexture" : {
                    "index" : 0
                },
                "metallicFactor" : 0,
                "roughnessFactor" : 0.22699999809265137
            }
        },
        {
            "doubleSided" : true,
            "name" : "Material.001",
            "pbrMetallicRoughness" : {
                "baseColorFactor" : [
                    0.5520114898681641,
                    0.5332766175270081,
                    0.5028864741325378,
                    1
                ],
                "metallicFactor" : 0,
                "roughnessFactor" : 0.5
            }
        }
    ],
    "meshes" : [
        {
            "name" : "Cube",
            "primitives" : [
                {
                    "attributes" : {
                        "POSITION" : 0,
                        "NORMAL" : 1,
                        "TEXCOORD_0" : 2
                    },
                    "indices" : 3,
                    "material" : 0
                },
                {
                    "attributes" : {
                        "POSITION" : 4,
                        "NORMAL" : 5,
                        "TEXCOORD_0" : 6
                    },
                    "indices" : 7,
                    "material" : 1
                }
            ]
        }
    ],
    "textures" : [
        {
            "sampler" : 0,
            "source" : 0
        }
    ],
    "images" : [
        {
            "mimeType" : "image/jpeg",
            "name" : "gameboy-reference",
            "uri" : "gameboy-reference.jpg"
        }
    ],
    "accessors" : [
        {
            "bufferView" : 0,
            "componentType" : 5126,
            "count" : 8738,
            "max" : [
                1.4755337238311768,
                2.5190482139587402,
                0.3677370548248291
            ],
            "min" : [
                -1.4733383655548096,
                -2.3877882957458496,
                -0.3257518708705902
            ],
            "type" : "VEC3"
        },
        {
            "bufferView" : 1,
            "componentType" : 5126,
            "count" : 8738,
            "type" : "VEC3"
        },
        {
            "bufferView" : 2,
            "componentType" : 5126,
            "count" : 8738,
            "type" : "VEC2"
        },
        {
            "bufferView" : 3,
            "componentType" : 5123,
            "count" : 47577,
            "type" : "SCALAR"
        },
        {
            "bufferView" : 4,
            "componentType" : 5126,
            "count" : 119,
            "max" : [
                1.3442025184631348,
                2.4422593116760254,
                0.23658721148967743
            ],
            "min" : [
                -1.484691858291626,
                -2.3109993934631348,
                -0.3257518708705902
            ],
            "type" : "VEC3"
        },
        {
            "bufferView" : 5,
            "componentType" : 5126,
            "count" : 119,
            "type" : "VEC3"
        },
        {
            "bufferView" : 6,
            "componentType" : 5126,
            "count" : 119,
            "type" : "VEC2"
        },
        {
            "bufferView" : 7,
            "componentType" : 5123,
            "count" : 537,
            "type" : "SCALAR"
        }
    ],
    "bufferViews" : [
        {
            "buffer" : 0,
            "byteLength" : 104856,
            "byteOffset" : 0
        },
        {
            "buffer" : 0,
            "byteLength" : 104856,
            "byteOffset" : 104856
        },
        {
            "buffer" : 0,
            "byteLength" : 69904,
            "byteOffset" : 209712
        },
        {
            "buffer" : 0,
            "byteLength" : 95154,
            "byteOffset" : 279616
        },
        {
            "buffer" : 0,
            "byteLength" : 1428,
            "byteOffset" : 374772
        },
        {
            "buffer" : 0,
            "byteLength" : 1428,
            "byteOffset" : 376200
        },
        {
            "buffer" : 0,
            "byteLength" : 952,
            "byteOffset" : 377628
        },
        {
            "buffer" : 0,
            "byteLength" : 1074,
            "byteOffset" : 378580
        }
    ],
    "samplers" : [
        {
            "magFilter" : 9729,
            "minFilter" : 9987
        }
    ],
    "buffers" : [
        {
            "byteLength" : 379656,
            "uri" : "gameboy3D.bin"
        }
    ]
}
